<svg width="133" height="26" viewBox="0 0 133 26" fill="none" xmlns="http://www.w3.org/2000/svg">
<path d="M7.13189 0H0.993047C0.361107 0 0 0.451385 0 1.08333V18.9582C0 19.4999 0.270833 19.7707 0.812495 19.7707H0.993047C1.44443 19.7707 1.80554 19.4096 1.80554 18.9582V12.0971H7.04162C11.8263 12.0971 14.4443 9.93048 14.4443 6.04857C14.4443 2.25693 11.736 0 7.13189 0ZM7.13189 10.3819H1.80554V1.71526H7.22217C10.743 1.71526 12.5485 3.24998 12.5485 6.04857C12.5485 8.93743 10.6527 10.3819 7.13189 10.3819Z" fill="#072849"/>
<path d="M29.6108 5.14576C28.8886 5.14576 28.5274 5.68743 28.5274 6.77075V7.58325C27.6247 6.31937 25.8191 4.96521 23.2011 4.96521C19.1386 4.96521 16.2498 8.12491 16.2498 12.4582C16.2498 16.8818 19.1386 20.0415 23.1108 20.0415C25.458 20.0415 27.3538 19.0484 28.5274 17.3332V18.9582C28.5274 19.6804 28.9788 19.7707 29.3399 19.7707H29.5205C30.0622 19.7707 30.333 19.4998 30.333 18.9582V5.50687C30.333 5.23604 29.7913 5.14576 29.6108 5.14576ZM23.2914 18.4165C20.222 18.4165 18.0553 15.8887 18.0553 12.4582C18.0553 8.9374 20.222 6.5902 23.3816 6.5902C25.8191 6.5902 27.7149 7.94435 28.6177 10.2916V13.5415C28.5274 16.2498 26.1802 18.4165 23.2914 18.4165Z" fill="#072849"/>
<path d="M41.799 17.2429L41.6184 17.3332C41.167 18.0554 40.3545 18.5068 39.4518 18.5068C37.9171 18.5068 37.2851 17.604 37.2851 15.3471V6.86101H41.2573C41.8893 6.86101 42.1601 6.59017 42.1601 6.13879V5.95824C42.1601 5.50685 41.8893 5.23602 41.2573 5.23602H37.2851V2.61798C37.2851 1.89576 36.8337 1.71521 36.5629 1.71521H36.3824C36.1115 1.71521 35.5699 1.80549 35.5699 2.61798V5.23602H34.0351C33.4935 5.23602 33.2227 5.50685 33.2227 5.95824V6.13879C33.2227 6.68045 33.4935 6.86101 34.0351 6.86101H35.5699V15.4373C35.5699 18.5068 36.8337 20.0415 39.4518 20.0415C40.5351 20.0415 41.4379 19.6804 41.8893 19.1387C42.3406 18.6873 42.4309 18.3262 42.4309 18.1456C42.4309 17.5137 42.0698 17.2429 41.799 17.2429Z" fill="#072849"/>
<path d="M50.9171 4.96521C49.1115 4.96521 47.8476 5.86798 47.1254 7.49297V6.77075C47.1254 5.68743 46.7643 5.14576 46.0421 5.14576C45.7713 5.14576 45.4102 5.23604 45.4102 5.50687V18.9582C45.4102 19.4998 45.681 19.7707 46.2226 19.7707H46.4032C46.9449 19.7707 47.2157 19.4998 47.2157 18.9582V12.8193C47.2157 10.4721 47.6671 6.68047 50.8268 6.68047C51.4587 6.68047 52.0907 6.86103 52.4518 7.22214L52.542 7.31242C52.7226 7.31242 52.8129 7.13186 52.9032 7.04158C52.9934 6.95131 53.0837 6.68048 53.0837 6.40964C52.9934 5.50687 52.0907 4.96521 50.9171 4.96521Z" fill="#072849"/>
<path d="M61.5692 4.96521C57.2359 4.96521 54.1665 8.12491 54.1665 12.4582C54.1665 16.8818 57.3262 20.0415 61.5692 20.0415C65.8123 20.0415 68.9719 16.8818 68.9719 12.5485C68.9719 8.12491 65.9025 4.96521 61.5692 4.96521ZM61.5692 18.4165C58.3192 18.4165 55.972 15.8887 55.972 12.4582C55.972 9.11796 58.4095 6.49992 61.5692 6.49992C64.7289 6.49992 67.1664 9.11796 67.1664 12.4582C67.2567 15.8887 64.8192 18.4165 61.5692 18.4165Z" fill="#072849"/>
<path d="M78.5404 4.96521C76.4641 4.96521 74.7488 5.86798 73.6655 7.49297V6.77075C73.6655 5.68743 73.3043 5.14576 72.5821 5.14576C72.3113 5.14576 71.9502 5.23604 71.9502 5.50687V18.9582C71.9502 19.4998 72.221 19.7707 72.7627 19.7707H72.9432C73.4849 19.7707 73.7557 19.4998 73.7557 18.9582V9.7499C74.6585 7.7638 76.3738 6.5902 78.5404 6.5902C81.1585 6.5902 82.6932 8.39574 82.6932 11.4652V18.9582C82.6932 19.4998 82.964 19.7707 83.5057 19.7707H83.6862C84.2279 19.7707 84.4987 19.4998 84.4987 18.9582V11.3749C84.4084 7.40269 82.1515 4.96521 78.5404 4.96521Z" fill="#072849"/>
<path d="M100.478 5.14576C99.7562 5.14576 99.3951 5.68743 99.3951 6.77075V7.58325C98.4924 6.31937 96.6868 4.96521 94.0688 4.96521C90.0063 4.96521 87.1174 8.12491 87.1174 12.4582C87.1174 16.8818 90.0063 20.0415 93.9785 20.0415C96.3257 20.0415 98.2215 19.0484 99.3951 17.3332V18.9582C99.3951 19.6804 99.8465 19.7707 100.208 19.7707H100.388C100.93 19.7707 101.201 19.4998 101.201 18.9582V5.50687C101.201 5.23604 100.659 5.14576 100.478 5.14576ZM94.1591 18.4165C91.0896 18.4165 88.923 15.8887 88.923 12.4582C88.923 8.9374 91.0896 6.5902 94.2493 6.5902C96.6868 6.5902 98.5826 7.94435 99.4854 10.2916V13.5415C99.3951 16.2498 97.0479 18.4165 94.1591 18.4165Z" fill="#072849"/>
<path d="M112.666 17.7846C112.305 17.6944 111.944 17.6041 111.582 17.5138C109.687 17.0624 108.784 16.8819 108.784 16.0694C108.784 15.7083 108.874 15.5277 109.145 15.3472C109.416 15.3472 109.777 15.4374 110.048 15.4374C113.388 15.4374 115.916 13.1805 115.916 10.2014C115.916 9.02777 115.464 7.94444 114.652 7.04167L116.909 4.60419V4.51391C116.909 4.1528 116.457 3.70142 115.916 3.70142C115.645 3.70142 115.193 3.79169 114.832 4.42363L113.659 6.04862C112.666 5.41668 111.492 4.9653 110.138 4.9653C106.888 4.9653 104.36 7.3125 104.36 10.2916C104.36 12.368 105.624 14.1736 107.7 14.9861C107.249 15.3472 107.069 15.8888 107.069 16.3402C107.069 16.9722 107.339 17.4235 107.881 17.7846C105.082 18.4166 103.367 20.0416 103.367 22.0277C103.367 24.6457 105.624 25.9999 110.138 25.9999C114.742 25.9999 117.36 24.4652 117.36 21.6666C117.27 19.7707 115.825 18.5069 112.666 17.7846ZM110.138 6.50001C112.485 6.50001 114.11 8.03472 114.11 10.2916C114.11 12.4583 112.485 13.993 110.138 13.993C107.791 13.993 106.166 12.4583 106.166 10.2916C106.166 8.03472 107.791 6.50001 110.138 6.50001ZM110.048 24.5554C106.798 24.5554 104.992 23.6527 104.992 22.0277C104.992 20.1319 107.61 19.0485 110.138 18.868C110.499 18.9582 110.86 19.0485 111.131 19.1388C111.492 19.2291 111.763 19.3194 112.124 19.4096C114.381 19.9513 115.464 20.7638 115.464 21.8471C115.555 23.5624 113.568 24.5554 110.048 24.5554Z" fill="#072849"/>
<path d="M125.665 4.96521C121.512 4.96521 118.443 8.21519 118.443 12.5485C118.443 16.9721 121.512 20.0415 125.846 20.0415C128.915 20.0415 130.54 18.6873 130.991 18.2359C131.623 17.604 131.894 16.9721 131.894 16.611C131.894 15.8887 131.172 15.6179 130.901 15.6179C130.811 15.6179 130.811 15.6179 130.721 15.6179C129.818 17.5137 128.193 18.3262 125.846 18.3262C122.596 18.3262 120.339 16.0693 120.158 12.729H131.533C131.894 12.729 132.346 12.6388 132.346 12.0971V11.9165C132.346 7.7638 129.637 4.96521 125.665 4.96521ZM130.54 11.2846H120.339C120.88 8.39574 122.957 6.49992 125.755 6.49992C128.373 6.49992 130.359 8.48602 130.54 11.2846Z" fill="#072849"/>
</svg>
